<?xml version="1.0" standalone="no"?><!DOCTYPE svg PUBLIC "-//W3C//DTD SVG 1.1//EN" "http://www.w3.org/Graphics/SVG/1.1/DTD/svg11.dtd"><svg t="1590560199763" class="icon" viewBox="0 0 1821 1024" version="1.1" xmlns="http://www.w3.org/2000/svg" p-id="1762" width="56.90625" height="32" xmlns:xlink="http://www.w3.org/1999/xlink"><defs><style type="text/css"></style></defs><path d="M1197.866667 1011.066667H624.4l-286.666667-496.533334 286.666667-496.666666h573.466667l286.8 496.666666-2.133334 3.733334-284.666666 492.8z m-564.666667-14.933334H1189.333333l278-481.6L1189.2 32.933333h-556L355.066667 514.533333l278.133333 481.6z m0 0" fill="#555555" p-id="1763"></path><path d="M779.733333 613.466667h-89.866666V415.6h85.066666c42 1.866667 64.4 19.066667 66.933334 51.6-0.666667 19.066667-8.933333 32.8-24.8 41.066667 21.6 9.6 32.8 25.866667 33.466666 48.8 0 37.6-23.6 56.4-70.8 56.4z m-58.266666-169.2v52.533333h48.8c24.8-0.666667 37.6-9.866667 38.266666-27.733333-1.333333-15.866667-13.733333-24.266667-37.333333-24.8h-49.733333z m52.533333 81.2h-52.533333v60.266666h55.466666c26.8 0 40.133333-10.133333 40.133334-30.533333-1.333333-19.2-15.6-29.066667-43.066667-29.733333zM889.733333 415.6h32.533334v197.866667h-32.533334V415.6zM1102.8 574.266667v-0.933334c-1.333333-12.8-1.866667-24.533333-1.866667-35.333333v-122.266667h31.6v197.866667H1100c-38.266667-56-66.266667-97.466667-84.133333-124.266667-7.066667-12.133333-13.066667-23.6-18.133334-34.4h-0.933333c1.866667 11.466667 2.933333 24.533333 2.933333 39.2v119.466667H968V415.6h33.466667c37.6 55.466667 64.933333 96.533333 82.133333 123.333333 7.066667 10.133333 13.466667 21.866667 19.2 35.333334z" fill="#555555" p-id="1764"></path></svg>